{
    "asset" : {
        "generator" : "Khronos glTF Blender I/O v1.0.5",
        "version" : "2.0"
    },
    "scene" : 0,
    "scenes" : [
        {
            "name" : "Scene",
            "nodes" : [
                0,
                1,
                5
            ]
        }
    ],
    "nodes" : [
        {
            "name" : "Light",
            "rotation" : [
                0.16907575726509094,
                0.7558803558349609,
                -0.27217137813568115,
                0.570947527885437
            ],
            "translation" : [
                4.076245307922363,
                5.903861999511719,
                -1.0054539442062378
            ]
        },
        {
            "name" : "Camera",
            "rotation" : [
                0.483536034822464,
                0.33687159419059753,
                -0.20870360732078552,
                0.7804827094078064
            ],
            "translation" : [
                7.358891487121582,
                4.958309173583984,
                6.925790786743164
            ]
        },
        {
            "mesh" : 0,
            "name" : "Earth_Surface.mat_0",
            "rotation" : [
                0,
                0,
                0.8767604827880859,
                0.4809274673461914
            ]
        },
        {
            "children" : [
                2
            ],
            "name" : "Earth",
            "rotation" : [
                0.70710688829422,
                0,
                0,
                0.7071066498756409
            ],
            "scale" : [
                104.7908935546875,
                104.79085540771484,
                104.79085540771484
            ]
        },
        {
            "mesh" : 1,
            "name" : "Text",
            "rotation" : [
                1,
                0,
                0,
                -8.903511172775325e-08
            ],
            "scale" : [
                669.3287353515625,
                1576.5911865234375,
                669.3287353515625
            ],
            "translation" : [
                0,
                0,
                -0.00048828125
            ]
        },
        {
            "children" : [
                3,
                4
            ],
            "name" : "RootNode",
            "scale" : [
                0.0003562764613889158,
                0.0003562765195965767,
                0.0003562765195965767
            ]
        }
    ],
    "materials" : [
        {
            "doubleSided" : true,
            "name" : "MaterialEarth",
            "pbrMetallicRoughness" : {
                "baseColorTexture" : {
                    "index" : 0,
                    "texCoord" : 0
                },
                "metallicFactor" : 0,
                "roughnessFactor" : 0.5
            }
        },
        {
            "doubleSided" : true,
            "name" : "MaterialText",
            "pbrMetallicRoughness" : {
                "baseColorFactor" : [
                    0.8000000715255737,
                    0.0048601808957755566,
                    0.009157257154583931,
                    1
                ],
                "metallicFactor" : 0.15261045098304749,
                "roughnessFactor" : 0.5
            }
        }
    ],
    "meshes" : [
        {
            "name" : "Earth_Surface.mat_0",
            "primitives" : [
                {
                    "attributes" : {
                        "POSITION" : 0,
                        "NORMAL" : 1,
                        "TEXCOORD_0" : 2
                    },
                    "indices" : 3,
                    "material" : 0
                }
            ]
        },
        {
            "name" : "Text",
            "primitives" : [
                {
                    "attributes" : {
                        "POSITION" : 4,
                        "NORMAL" : 5,
                        "TEXCOORD_0" : 6
                    },
                    "indices" : 7,
                    "material" : 1
                },
                {
                    "attributes" : {
                        "POSITION" : 8,
                        "NORMAL" : 9,
                        "TEXCOORD_0" : 10
                    },
                    "indices" : 11,
                    "material" : 1
                },
                {
                    "attributes" : {
                        "POSITION" : 12,
                        "NORMAL" : 13,
                        "TEXCOORD_0" : 14
                    },
                    "indices" : 15,
                    "material" : 1
                }
            ]
        }
    ],
    "textures" : [
        {
            "source" : 0
        }
    ],
    "images" : [
        {
            "bufferView" : 4,
            "mimeType" : "image/jpeg",
            "name" : "Surface_mat_baseColor"
        }
    ],
    "accessors" : [
        {
            "bufferView" : 0,
            "componentType" : 5126,
            "count" : 3037,
            "max" : [
                42.41783142089844,
                42.41783142089844,
                42.67764663696289
            ],
            "min" : [
                -42.41783142089844,
                -42.41783142089844,
                -42.67764663696289
            ],
            "type" : "VEC3"
        },
        {
            "bufferView" : 1,
            "componentType" : 5126,
            "count" : 3037,
            "type" : "VEC3"
        },
        {
            "bufferView" : 2,
            "componentType" : 5126,
            "count" : 3037,
            "type" : "VEC2"
        },
        {
            "bufferView" : 3,
            "componentType" : 5123,
            "count" : 17280,
            "type" : "SCALAR"
        },
        {
            "bufferView" : 5,
            "componentType" : 5126,
            "count" : 65534,
            "max" : [
                8.778463363647461,
                0.28300023078918457,
                8.780756950378418
            ],
            "min" : [
                -8.782628059387207,
                -0.3145613372325897,
                -8.782630920410156
            ],
            "type" : "VEC3"
        },
        {
            "bufferView" : 6,
            "componentType" : 5126,
            "count" : 65534,
            "type" : "VEC3"
        },
        {
            "bufferView" : 7,
            "componentType" : 5126,
            "count" : 65534,
            "type" : "VEC2"
        },
        {
            "bufferView" : 8,
            "componentType" : 5123,
            "count" : 90120,
            "type" : "SCALAR"
        },
        {
            "bufferView" : 9,
            "componentType" : 5126,
            "count" : 5512,
            "max" : [
                8.778463363647461,
                0.15591441094875336,
                -0.3598012924194336
            ],
            "min" : [
                -4.593190670013428,
                -0.30942678451538086,
                -8.782630920410156
            ],
            "type" : "VEC3"
        },
        {
            "bufferView" : 10,
            "componentType" : 5126,
            "count" : 5512,
            "type" : "VEC3"
        },
        {
            "bufferView" : 11,
            "componentType" : 5126,
            "count" : 5512,
            "type" : "VEC2"
        },
        {
            "bufferView" : 12,
            "componentType" : 5123,
            "count" : 16416,
            "type" : "SCALAR"
        },
        {
            "bufferView" : 13,
            "componentType" : 5126,
            "count" : 6,
            "max" : [
                -3.8854265213012695,
                -0.1311528980731964,
                -7.738136291503906
            ],
            "min" : [
                -3.9575040340423584,
                -0.13389892876148224,
                -7.854528427124023
            ],
            "type" : "VEC3"
        },
        {
            "bufferView" : 14,
            "componentType" : 5126,
            "count" : 6,
            "type" : "VEC3"
        },
        {
            "bufferView" : 15,
            "componentType" : 5126,
            "count" : 6,
            "type" : "VEC2"
        },
        {
            "bufferView" : 16,
            "componentType" : 5123,
            "count" : 12,
            "type" : "SCALAR"
        }
    ],
    "bufferViews" : [
        {
            "buffer" : 0,
            "byteLength" : 36444,
            "byteOffset" : 0
        },
        {
            "buffer" : 0,
            "byteLength" : 36444,
            "byteOffset" : 36444
        },
        {
            "buffer" : 0,
            "byteLength" : 24296,
            "byteOffset" : 72888
        },
        {
            "buffer" : 0,
            "byteLength" : 34560,
            "byteOffset" : 97184
        },
        {
            "buffer" : 0,
            "byteLength" : 300140,
            "byteOffset" : 131744
        },
        {
            "buffer" : 0,
            "byteLength" : 786408,
            "byteOffset" : 431884
        },
        {
            "buffer" : 0,
            "byteLength" : 786408,
            "byteOffset" : 1218292
        },
        {
            "buffer" : 0,
            "byteLength" : 524272,
            "byteOffset" : 2004700
        },
        {
            "buffer" : 0,
            "byteLength" : 180240,
            "byteOffset" : 2528972
        },
        {
            "buffer" : 0,
            "byteLength" : 66144,
            "byteOffset" : 2709212
        },
        {
            "buffer" : 0,
            "byteLength" : 66144,
            "byteOffset" : 2775356
        },
        {
            "buffer" : 0,
            "byteLength" : 44096,
            "byteOffset" : 2841500
        },
        {
            "buffer" : 0,
            "byteLength" : 32832,
            "byteOffset" : 2885596
        },
        {
            "buffer" : 0,
            "byteLength" : 72,
            "byteOffset" : 2918428
        },
        {
            "buffer" : 0,
            "byteLength" : 72,
            "byteOffset" : 2918500
        },
        {
            "buffer" : 0,
            "byteLength" : 48,
            "byteOffset" : 2918572
        },
        {
            "buffer" : 0,
            "byteLength" : 24,
            "byteOffset" : 2918620
        }
    ],
    "buffers" : [
        {
            "byteLength" : 2918644,
            "uri" : "data:application/octet-stream;base64,"
        }
    ]
}
